999
dxflib 2.2.0.0
  0
SECTION
  2
HEADER
  9
$ACADVER
  1
AC1015
  9
$HANDSEED
  5
FFFF
  9
$SPLINESEGS
 70
8
  9
$DIMEXE
 40
1.25
  9
$DIMLUNIT
 70
2
  9
$GRIDMODE
 70
0
  9
$INSUNITS
 70
4
  9
$DIMADEC
 70
2
  9
$DIMASZ
 40
2.5
  9
$DIMGAP
 40
0.625
  9
$DIMTXT
 40
2.5
  9
$GRIDUNIT
 10
10.0
 20
10.0
  9
$DIMEXO
 40
0.625
  9
$LUPREC
 70
4
  9
$DIMAUNIT
 70
0
  9
$AUPREC
 70
2
  9
$PLIMMIN
 10
0.0
 20
0.0
  9
$LUNITS
 70
2
  9
$PLIMMAX
 10
640.0
 20
440.0
  9
$DIMSTYLE
  2
Standard
  9
$AUNITS
 70
0
  0
ENDSEC
  0
SECTION
  2
TABLES
  0
TABLE
  2
VPORT
  5
8
100
AcDbSymbolTable
 70
1
  0
VPORT
  5
30
100
AcDbSymbolTableRecord
100
AcDbViewportTableRecord
  2
*Active
 70
0
 10
0.0
 20
0.0
 11
1.0
 21
1.0
 12
286.3055555555554861
 22
148.5
 13
0.0
 23
0.0
 14
10.0
 24
10.0
 15
10.0
 25
10.0
 16
0.0
 26
0.0
 36
1.0
 17
0.0
 27
0.0
 37
0.0
 40
297.0
 41
1.92798353909465
 42
50.0
 43
0.0
 44
0.0
 50
0.0
 51
0.0
 71
0
 72
100
 73
1
 74
3
 75
1
 76
1
 77
0
 78
0
281
0
 65
1
110
0.0
120
0.0
130
0.0
111
1.0
121
0.0
131
0.0
112
0.0
122
1.0
132
0.0
 79
0
146
0.0
  0
ENDTAB
  0
TABLE
  2
LTYPE
  5
5
100
AcDbSymbolTable
 70
21
  0
LTYPE
  5
14
100
AcDbSymbolTableRecord
100
AcDbLinetypeTableRecord
  2
ByBlock
 70
0
  3

 72
65
 73
0
 40
0.0
  0
LTYPE
  5
15
100
AcDbSymbolTableRecord
100
AcDbLinetypeTableRecord
  2
ByLayer
 70
0
  3

 72
65
 73
0
 40
0.0
  0
LTYPE
  5
16
100
AcDbSymbolTableRecord
100
AcDbLinetypeTableRecord
  2
CONTINUOUS
 70
0
  3
Solid line
 72
65
 73
0
 40
0.0
  0
LTYPE
  5
31
100
AcDbSymbolTableRecord
100
AcDbLinetypeTableRecord
  2
DOT
 70
0
  3
Dot . . . . . . . . . . . . . . . . . . . . . .
 72
65
 73
2
 40
6.3499999999999996
 49
0.0
 74
0
 49
-6.3499999999999996
 74
0
  0
LTYPE
  5
32
100
AcDbSymbolTableRecord
100
AcDbLinetypeTableRecord
  2
DOT2
 70
0
  3
Dot (.5x) .....................................
 72
65
 73
2
 40
3.1749999999999998
 49
0.0
 74
0
 49
-3.1749999999999998
 74
0
  0
LTYPE
  5
33
100
AcDbSymbolTableRecord
100
AcDbLinetypeTableRecord
  2
DOTX2
 70
0
  3
Dot (2x) .  .  .  .  .  .  .  .  .  .  .  .  .
 72
65
 73
2
 40
12.6999999999999993
 49
0.0
 74
0
 49
-12.6999999999999993
 74
0
  0
LTYPE
  5
34
100
AcDbSymbolTableRecord
100
AcDbLinetypeTableRecord
  2
DASHED
 70
0
  3
Dashed __ __ __ __ __ __ __ __ __ __ __ __ __ _
 72
65
 73
2
 40
19.0500000000000007
 49
12.6999999999999993
 74
0
 49
-6.3499999999999996
 74
0
  0
LTYPE
  5
35
100
AcDbSymbolTableRecord
100
AcDbLinetypeTableRecord
  2
DASHED2
 70
0
  3
Dashed (.5x) _ _ _ _ _ _ _ _ _ _ _ _ _ _ _ _ _
 72
65
 73
2
 40
9.5250000000000004
 49
6.3499999999999996
 74
0
 49
-3.1749999999999998
 74
0
  0
LTYPE
  5
36
100
AcDbSymbolTableRecord
100
AcDbLinetypeTableRecord
  2
DASHEDX2
 70
0
  3
Dashed (2x) ____  ____  ____  ____  ____  ___
 72
65
 73
2
 40
38.1000000000000014
 49
25.3999999999999986
 74
0
 49
-12.6999999999999993
 74
0
  0
LTYPE
  5
37
100
AcDbSymbolTableRecord
100
AcDbLinetypeTableRecord
  2
DASHDOT
 70
0
  3
Dash dot __ . __ . __ . __ . __ . __ . __ . __
 72
65
 73
4
 40
25.3999999999999986
 49
12.6999999999999993
 74
0
 49
-6.3499999999999996
 74
0
 49
0.0
 74
0
 49
-6.3499999999999996
 74
0
  0
LTYPE
  5
38
100
AcDbSymbolTableRecord
100
AcDbLinetypeTableRecord
  2
DASHDOT2
 70
0
  3
Dash dot (.5x) _._._._._._._._._._._._._._._.
 72
65
 73
4
 40
12.6999999999999993
 49
6.3499999999999996
 74
0
 49
-3.1749999999999998
 74
0
 49
0.0
 74
0
 49
-3.1749999999999998
 74
0
  0
LTYPE
  5
39
100
AcDbSymbolTableRecord
100
AcDbLinetypeTableRecord
  2
DASHDOTX2
 70
0
  3
Dash dot (2x) ____  .  ____  .  ____  .  ___
 72
65
 73
4
 40
50.7999999999999972
 49
25.3999999999999986
 74
0
 49
-12.6999999999999993
 74
0
 49
0.0
 74
0
 49
-12.6999999999999993
 74
0
  0
LTYPE
  5
3A
100
AcDbSymbolTableRecord
100
AcDbLinetypeTableRecord
  2
DIVIDE
 70
0
  3
Divide ____ . . ____ . . ____ . . ____ . . ____
 72
65
 73
6
 40
31.75
 49
12.6999999999999993
 74
0
 49
-6.3499999999999996
 74
0
 49
0.0
 74
0
 49
-6.3499999999999996
 74
0
 49
0.0
 74
0
 49
-6.3499999999999996
 74
0
  0
LTYPE
  5
3B
100
AcDbSymbolTableRecord
100
AcDbLinetypeTableRecord
  2
DIVIDE2
 70
0
  3
Divide (.5x) __..__..__..__..__..__..__..__.._
 72
65
 73
6
 40
15.875
 49
6.3499999999999996
 74
0
 49
-3.1749999999999998
 74
0
 49
0.0
 74
0
 49
-3.1749999999999998
 74
0
 49
0.0
 74
0
 49
-3.1749999999999998
 74
0
  0
LTYPE
  5
3C
100
AcDbSymbolTableRecord
100
AcDbLinetypeTableRecord
  2
DIVIDEX2
 70
0
  3
Divide (2x) ________  .  .  ________  .  .  _
 72
65
 73
6
 40
63.5
 49
25.3999999999999986
 74
0
 49
-12.6999999999999993
 74
0
 49
0.0
 74
0
 49
-12.6999999999999993
 74
0
 49
0.0
 74
0
 49
-12.6999999999999993
 74
0
  0
LTYPE
  5
3D
100
AcDbSymbolTableRecord
100
AcDbLinetypeTableRecord
  2
CENTER
 70
0
  3
Center ____ _ ____ _ ____ _ ____ _ ____ _ ____
 72
65
 73
4
 40
50.7999999999999972
 49
31.75
 74
0
 49
-6.3499999999999996
 74
0
 49
6.3499999999999996
 74
0
 49
-6.3499999999999996
 74
0
  0
LTYPE
  5
3E
100
AcDbSymbolTableRecord
100
AcDbLinetypeTableRecord
  2
CENTER2
 70
0
  3
Center (.5x) ___ _ ___ _ ___ _ ___ _ ___ _ ___
 72
65
 73
4
 40
28.5749999999999993
 49
19.0500000000000007
 74
0
 49
-3.1749999999999998
 74
0
 49
3.1749999999999998
 74
0
 49
-3.1749999999999998
 74
0
  0
LTYPE
  5
3F
100
AcDbSymbolTableRecord
100
AcDbLinetypeTableRecord
  2
CENTERX2
 70
0
  3
Center (2x) ________  __  ________  __  _____
 72
65
 73
4
 40
101.5999999999999943
 49
63.5
 74
0
 49
-12.6999999999999993
 74
0
 49
12.6999999999999993
 74
0
 49
-12.6999999999999993
 74
0
  0
LTYPE
  5
40
100
AcDbSymbolTableRecord
100
AcDbLinetypeTableRecord
  2
BORDER
 70
0
  3
Border __ __ . __ __ . __ __ . __ __ . __ __ .
 72
65
 73
6
 40
44.4500000000000028
 49
12.6999999999999993
 74
0
 49
-6.3499999999999996
 74
0
 49
12.6999999999999993
 74
0
 49
-6.3499999999999996
 74
0
 49
0.0
 74
0
 49
-6.3499999999999996
 74
0
  0
LTYPE
  5
41
100
AcDbSymbolTableRecord
100
AcDbLinetypeTableRecord
  2
BORDER2
 70
0
  3
Border (.5x) __.__.__.__.__.__.__.__.__.__.__.
 72
65
 73
6
 40
22.2250000000000014
 49
6.3499999999999996
 74
0
 49
-3.1749999999999998
 74
0
 49
6.3499999999999996
 74
0
 49
-3.1749999999999998
 74
0
 49
0.0
 74
0
 49
-3.1749999999999998
 74
0
  0
LTYPE
  5
42
100
AcDbSymbolTableRecord
100
AcDbLinetypeTableRecord
  2
BORDERX2
 70
0
  3
Border (2x) ____  ____  .  ____  ____  .  ___
 72
65
 73
6
 40
88.9000000000000057
 49
25.3999999999999986
 74
0
 49
-12.6999999999999993
 74
0
 49
25.3999999999999986
 74
0
 49
-12.6999999999999993
 74
0
 49
0.0
 74
0
 49
-12.6999999999999993
 74
0
  0
ENDTAB
  0
TABLE
  2
LAYER
  5
2
100
AcDbSymbolTable
 70
9
  0
LAYER
  5
10
100
AcDbSymbolTableRecord
100
AcDbLayerTableRecord
  2
0
 70
0
 62
7
  6
CONTINUOUS
370
0
390
F
  0
LAYER
  5
43
100
AcDbSymbolTableRecord
100
AcDbLayerTableRecord
  2
basex-Line
 70
0
 62
8
  6
DASHDOTX2
370
40
390
F
  0
LAYER
  5
44
100
AcDbSymbolTableRecord
100
AcDbLayerTableRecord
  2
femaleContact
 70
0
 62
7
  6
CONTINUOUS
370
158
390
F
  0
LAYER
  5
45
100
AcDbSymbolTableRecord
100
AcDbLayerTableRecord
  2
nozzleCylinder
 70
0
 62
7
  6
CONTINUOUS
370
100
390
F
  0
LAYER
  5
46
100
AcDbSymbolTableRecord
100
AcDbLayerTableRecord
  2
nozzleFunnel
 70
0
 62
7
  6
CONTINUOUS
370
100
390
F
  0
LAYER
  5
47
100
AcDbSymbolTableRecord
100
AcDbLayerTableRecord
  2
maleContact
 70
1
 62
7
  6
CONTINUOUS
370
158
390
F
  0
LAYER
  5
48
100
AcDbSymbolTableRecord
100
AcDbLayerTableRecord
  2
ParameterLines
 70
0
 62
8
  6
DASHEDX2
370
20
390
F
  0
LAYER
  5
49
100
AcDbSymbolTableRecord
100
AcDbLayerTableRecord
  2
parameters
 70
0
 62
7
  6
CONTINUOUS
370
0
390
F
  0
LAYER
  5
4A
100
AcDbSymbolTableRecord
100
AcDbLayerTableRecord
  2
Def_areas
 70
0
 62
9
  6
CONTINUOUS
370
0
390
F
  0
ENDTAB
  0
TABLE
  2
STYLE
  5
3
100
AcDbSymbolTable
 70
1
  0
STYLE
  5
11
100
AcDbSymbolTableRecord
100
AcDbTextStyleTableRecord
  2
Standard
 70
0
 40
0.0
 41
0.75
 50
0.0
 71
0
 42
2.5
  3
txt
  4

  0
ENDTAB
  0
TABLE
  2
VIEW
  5
6
100
AcDbSymbolTable
 70
0
  0
ENDTAB
  0
TABLE
  2
UCS
  5
7
100
AcDbSymbolTable
 70
0
  0
ENDTAB
  0
TABLE
  2
APPID
  5
9
100
AcDbSymbolTable
 70
1
  0
APPID
  5
12
100
AcDbSymbolTableRecord
100
AcDbRegAppTableRecord
  2
ACAD
 70
0
  0
ENDTAB
  0
TABLE
  2
DIMSTYLE
  5
A
100
AcDbSymbolTable
 70
1
100
AcDbDimStyleTable
 71
0
  0
DIMSTYLE
105
27
100
AcDbSymbolTableRecord
100
AcDbDimStyleTableRecord
  2
Standard
 41
2.5
 42
0.625
 43
3.75
 44
1.25
 70
0
 73
0
 74
0
 77
1
 78
8
140
2.5
141
2.5
143
0.03937007874016
147
0.625
171
3
172
1
271
2
272
2
274
3
278
44
283
0
284
8
340
11
  0
ENDTAB
  0
TABLE
  2
BLOCK_RECORD
  5
1
100
AcDbSymbolTable
 70
1
  0
BLOCK_RECORD
  5
1F
100
AcDbSymbolTableRecord
100
AcDbBlockTableRecord
  2
*Model_Space
340
22
  0
BLOCK_RECORD
  5
1B
100
AcDbSymbolTableRecord
100
AcDbBlockTableRecord
  2
*Paper_Space
340
1E
  0
BLOCK_RECORD
  5
23
100
AcDbSymbolTableRecord
100
AcDbBlockTableRecord
  2
*Paper_Space0
340
26
  0
ENDTAB
  0
ENDSEC
  0
SECTION
  2
BLOCKS
  0
BLOCK
  5
20
100
AcDbEntity
  8
0
100
AcDbBlockBegin
  2
*Model_Space
 70
0
 10
0.0
 20
0.0
 30
0.0
  3
*Model_Space
  1

  0
ENDBLK
  5
21
100
AcDbEntity
  8
0
100
AcDbBlockEnd
  0
BLOCK
  5
1C
100
AcDbEntity
 67
1
  8
0
100
AcDbBlockBegin
  2
*Paper_Space
 70
0
 10
0.0
 20
0.0
 30
0.0
  3
*Paper_Space
  1

  0
ENDBLK
  5
1D
100
AcDbEntity
 67
1
  8
0
100
AcDbBlockEnd
  0
BLOCK
  5
24
100
AcDbEntity
  8
0
100
AcDbBlockBegin
  2
*Paper_Space0
 70
0
 10
0.0
 20
0.0
 30
0.0
  3
*Paper_Space0
  1

  0
ENDBLK
  5
25
100
AcDbEntity
  8
0
100
AcDbBlockEnd
  0
ENDSEC
  0
SECTION
  2
ENTITIES
  0
LINE
  5
4B
100
AcDbEntity
100
AcDbLine
  8
femaleContact
 62
256
370
-1
  6
ByLayer
 10
-61.03515625
 20
59.814453125
 30
0.0
 11
-78.125
 21
79.345703125
 31
0.0
  0
LINE
  5
4C
100
AcDbEntity
100
AcDbLine
  8
femaleContact
 62
256
370
-1
  6
ByLayer
 10
0.6103515625
 20
100.7080078125
 30
0.0
 11
-150.7568359375
 21
100.7080078125
 31
0.0
  0
LINE
  5
4D
100
AcDbEntity
100
AcDbLine
  8
femaleContact
 62
256
370
-1
  6
ByLayer
 10
0.0
 20
68.9697265625
 30
0.0
 11
0.0
 21
100.78125
 31
0.0
  0
ARC
  5
4E
100
AcDbEntity
  8
femaleContact
 62
256
370
-1
  6
ByLayer
100
AcDbCircle
 10
-10.6159907505540403
 20
70.1715355335479813
 30
0.0
 40
10.4279601124330412
100
AcDbArc
 50
272.0113265305030268
 51
353.881224176347132
  0
LINE
  5
4F
100
AcDbEntity
100
AcDbLine
  8
femaleContact
 62
256
370
-1
  6
ByLayer
 10
-78.25
 20
79.0
 30
0.0
 11
-152.587890625
 21
79.345703125
 31
0.0
  0
LINE
  5
50
100
AcDbEntity
100
AcDbLine
  8
femaleContact
 62
256
370
-1
  6
ByLayer
 10
-9.75
 20
59.75
 30
0.0
 11
-61.03515625
 21
59.814453125
 31
0.0
  0
LINE
  5
51
100
AcDbEntity
100
AcDbLine
  8
femaleContact
 62
256
370
-1
  6
ByLayer
 10
-61.0351562500000142
 20
-59.8144531249999858
 30
0.0
 11
-78.1250000000000142
 21
-79.345703125
 31
0.0
  0
LINE
  5
52
100
AcDbEntity
100
AcDbLine
  8
femaleContact
 62
256
370
-1
  6
ByLayer
 10
0.6103515624999414
 20
-100.7080078125
 30
0.0
 11
-150.7568359375000284
 21
-100.7080078124999716
 31
0.0
  0
LINE
  5
53
100
AcDbEntity
100
AcDbLine
  8
femaleContact
 62
256
370
-1
  6
ByLayer
 10
-0.0000000000000127
 20
-68.9697265625
 30
0.0
 11
-0.0000000000000185
 21
-100.78125
 31
0.0
  0
ARC
  5
54
100
AcDbEntity
  8
femaleContact
 62
256
370
-1
  6
ByLayer
100
AcDbCircle
 10
-10.6159907505540634
 20
-70.1715355335479813
 30
0.0
 40
10.4279601124330412
100
AcDbArc
 50
6.1187758236528689
 51
87.9886734694969874
  0
LINE
  5
55
100
AcDbEntity
100
AcDbLine
  8
femaleContact
 62
256
370
-1
  6
ByLayer
 10
-78.2500000000000142
 20
-79.0
 30
0.0
 11
-152.5878906250000284
 21
-79.3457031249999716
 31
0.0
  0
LINE
  5
56
100
AcDbEntity
100
AcDbLine
  8
femaleContact
 62
256
370
-1
  6
ByLayer
 10
-9.7500000000000142
 20
-59.75
 30
0.0
 11
-61.0351562500000142
 21
-59.8144531249999858
 31
0.0
  0
LINE
  5
57
100
AcDbEntity
100
AcDbLine
  8
nozzleCylinder
 62
256
370
-1
  6
ByLayer
 10
-100.0000000000001421
 20
100.6250000000001421
 30
0.0
 11
-99.9680000000001598
 21
110.2080000000001689
 31
0.0
  0
LINE
  5
58
100
AcDbEntity
100
AcDbLine
  8
nozzleCylinder
 62
256
370
-1
  6
ByLayer
 10
-100.0243200000001593
 20
110.3462400000001793
 30
0.0
 11
0.0
 21
110.3125000000001563
 31
0.0
  0
LINE
  5
59
100
AcDbEntity
100
AcDbLine
  8
nozzleCylinder
 62
256
370
-1
  6
ByLayer
 10
0.2000000000000004
 20
110.3125000000001563
 30
0.0
 11
100.000000000000199
 21
110.3125000000001563
 31
0.0
  0
LINE
  5
5A
100
AcDbEntity
100
AcDbLine
  8
nozzleCylinder
 62
256
370
-1
  6
ByLayer
 10
100.2000000000002018
 20
110.3125000000001563
 30
0.0
 11
100.2000000000002018
 21
110.3125000000001563
 31
0.0
  0
LINE
  5
5B
100
AcDbEntity
100
AcDbLine
  8
nozzleCylinder
 62
256
370
-1
  6
ByLayer
 10
100.2000000000002018
 20
62.6000000000001222
 30
0.0
 11
0.2000000000000004
 21
62.6000000000001222
 31
0.0
  0
LINE
  5
5C
100
AcDbEntity
100
AcDbLine
  8
nozzleCylinder
 62
256
370
-1
  6
ByLayer
 10
0.2000000000000004
 20
101.000000000000199
 30
0.0
 11
0.2000000000000004
 21
63.0000000000001208
 31
0.0
  0
LINE
  5
5D
100
AcDbEntity
100
AcDbLine
  8
nozzleCylinder
 62
256
370
-1
  6
ByLayer
 10
-100.000000000000199
 20
-100.6250000000000568
 30
0.0
 11
-99.9680000000001883
 21
-110.2080000000001121
 31
0.0
  0
LINE
  5
5E
100
AcDbEntity
100
AcDbLine
  8
nozzleCylinder
 62
256
370
-1
  6
ByLayer
 10
-100.0243200000001877
 20
-110.3462400000001509
 30
0.0
 11
0.0
 21
-110.3125000000001279
 31
0.0
  0
LINE
  5
5F
100
AcDbEntity
100
AcDbLine
  8
nozzleCylinder
 62
256
370
-1
  6
ByLayer
 10
0.1999999999999602
 20
-110.3125000000001421
 30
0.0
 11
100.0000000000001705
 21
-110.3125000000001563
 31
0.0
  0
LINE
  5
60
100
AcDbEntity
100
AcDbLine
  8
nozzleCylinder
 62
256
370
-1
  6
ByLayer
 10
100.2000000000001307
 20
-110.3125000000001705
 30
0.0
 11
100.2000000000001307
 21
-110.3125000000001705
 31
0.0
  0
LINE
  5
61
100
AcDbEntity
100
AcDbLine
  8
nozzleCylinder
 62
256
370
-1
  6
ByLayer
 10
100.2000000000002018
 20
-62.6000000000001222
 30
0.0
 11
0.1999999999999744
 21
-62.6000000000000867
 31
0.0
  0
LINE
  5
62
100
AcDbEntity
100
AcDbLine
  8
nozzleCylinder
 62
256
370
-1
  6
ByLayer
 10
0.1999999999999744
 20
-101.0000000000001563
 30
0.0
 11
0.2000000000000028
 21
-63.0000000000000995
 31
0.0
  0
LINE
  5
63
100
AcDbEntity
100
AcDbLine
  8
nozzleFunnel
 62
256
370
-1
  6
ByLayer
 10
119.4056845351629761
 20
68.4200954225609905
 30
0.0
 11
100.3208779648374502
 21
62.4392795774392653
 31
0.0
  0
LINE
  5
64
100
AcDbEntity
100
AcDbLine
  8
nozzleFunnel
 62
256
370
-1
  6
ByLayer
 10
128.9480878203257532
 20
71.4105033451218532
 30
0.0
 11
109.863281250000199
 21
65.4296875000001279
 31
0.0
  0
LINE
  5
65
100
AcDbEntity
100
AcDbLine
  8
nozzleFunnel
 62
256
370
-1
  6
ByLayer
 10
138.4904911054885304
 20
74.4009112676827158
 30
0.0
 11
119.4056845351629761
 21
68.4200954225609905
 31
0.0
  0
LINE
  5
66
100
AcDbEntity
100
AcDbLine
  8
nozzleFunnel
 62
256
370
-1
  6
ByLayer
 10
148.0328943906513075
 20
77.3913191902435784
 30
0.0
 11
128.9480878203257532
 21
71.4105033451218532
 31
0.0
  0
LINE
  5
67
100
AcDbEntity
100
AcDbLine
  8
nozzleFunnel
 62
256
370
-1
  6
ByLayer
 10
157.5752976758140846
 20
80.381727112804441
 30
0.0
 11
138.4904911054885304
 21
74.4009112676827158
 31
0.0
  0
LINE
  5
68
100
AcDbEntity
100
AcDbLine
  8
nozzleFunnel
 62
256
370
-1
  6
ByLayer
 10
167.1177009609768618
 20
83.3721350353653037
 30
0.0
 11
148.0328943906513075
 21
77.3913191902435784
 31
0.0
  0
LINE
  5
69
100
AcDbEntity
100
AcDbLine
  8
nozzleFunnel
 62
256
370
-1
  6
ByLayer
 10
176.6601042461396389
 20
86.3625429579261663
 30
0.0
 11
157.5752976758140846
 21
80.381727112804441
 31
0.0
  0
LINE
  5
6A
100
AcDbEntity
100
AcDbLine
  8
nozzleFunnel
 62
256
370
-1
  6
ByLayer
 10
186.2025075313024161
 20
89.3529508804870289
 30
0.0
 11
167.1177009609768618
 21
83.3721350353653037
 31
0.0
  0
LINE
  5
6B
100
AcDbEntity
100
AcDbLine
  8
nozzleFunnel
 62
256
370
-1
  6
ByLayer
 10
195.7449108164651932
 20
92.3433588030478916
 30
0.0
 11
176.6601042461396389
 21
86.3625429579261663
 31
0.0
  0
LINE
  5
6C
100
AcDbEntity
100
AcDbLine
  8
nozzleFunnel
 62
256
370
-1
  6
ByLayer
 10
200.2648504667891416
 20
93.7598220289149111
 30
0.0
 11
181.1800438964635873
 21
87.7790061837931859
 31
0.0
  0
LINE
  5
6D
100
AcDbEntity
100
AcDbLine
  8
nozzleFunnel
 62
256
370
-1
  6
ByLayer
 10
200.2648504667891416
 20
93.7598220289149111
 30
0.0
 11
200.2648504667891416
 21
93.7598220289149111
 31
0.0
  0
LINE
  5
6E
100
AcDbEntity
100
AcDbLine
  8
nozzleFunnel
 62
256
370
-1
  6
ByLayer
 10
119.4056845351629477
 20
-68.4200954225609621
 30
0.0
 11
100.3208779648374502
 21
-62.4392795774392582
 31
0.0
  0
LINE
  5
6F
100
AcDbEntity
100
AcDbLine
  8
nozzleFunnel
 62
256
370
-1
  6
ByLayer
 10
128.9480878203257248
 20
-71.4105033451218247
 30
0.0
 11
109.8632812500001705
 21
-65.4296875000000853
 31
0.0
  0
LINE
  5
70
100
AcDbEntity
100
AcDbLine
  8
nozzleFunnel
 62
256
370
-1
  6
ByLayer
 10
138.4904911054884735
 20
-74.4009112676826732
 30
0.0
 11
119.4056845351629477
 21
-68.4200954225609621
 31
0.0
  0
LINE
  5
71
100
AcDbEntity
100
AcDbLine
  8
nozzleFunnel
 62
256
370
-1
  6
ByLayer
 10
148.0328943906513359
 20
-77.3913191902435926
 30
0.0
 11
128.9480878203257248
 21
-71.4105033451218247
 31
0.0
  0
LINE
  5
72
100
AcDbEntity
100
AcDbLine
  8
nozzleFunnel
 62
256
370
-1
  6
ByLayer
 10
157.5752976758140562
 20
-80.3817271128044126
 30
0.0
 11
138.4904911054884735
 21
-74.4009112676826732
 31
0.0
  0
LINE
  5
73
100
AcDbEntity
100
AcDbLine
  8
nozzleFunnel
 62
256
370
-1
  6
ByLayer
 10
167.1177009609768049
 20
-83.3721350353652895
 30
0.0
 11
148.0328943906513359
 21
-77.3913191902435926
 31
0.0
  0
LINE
  5
74
100
AcDbEntity
100
AcDbLine
  8
nozzleFunnel
 62
256
370
-1
  6
ByLayer
 10
176.6601042461396673
 20
-86.3625429579261663
 30
0.0
 11
157.5752976758140562
 21
-80.3817271128044126
 31
0.0
  0
LINE
  5
75
100
AcDbEntity
100
AcDbLine
  8
nozzleFunnel
 62
256
370
-1
  6
ByLayer
 10
186.2025075313024445
 20
-89.3529508804870289
 30
0.0
 11
167.1177009609768049
 21
-83.3721350353652895
 31
0.0
  0
LINE
  5
76
100
AcDbEntity
100
AcDbLine
  8
nozzleFunnel
 62
256
370
-1
  6
ByLayer
 10
195.7449108164652216
 20
-92.3433588030478774
 30
0.0
 11
176.6601042461396673
 21
-86.3625429579261663
 31
0.0
  0
LINE
  5
77
100
AcDbEntity
100
AcDbLine
  8
nozzleFunnel
 62
256
370
-1
  6
ByLayer
 10
200.2648504667891132
 20
-93.7598220289149111
 30
0.0
 11
181.1800438964635305
 21
-87.7790061837931717
 31
0.0
  0
LINE
  5
78
100
AcDbEntity
100
AcDbLine
  8
nozzleFunnel
 62
256
370
-1
  6
ByLayer
 10
200.2648504667891132
 20
-93.7598220289149111
 30
0.0
 11
200.2648504667891132
 21
-93.7598220289149111
 31
0.0
  0
ARC
  5
79
100
AcDbEntity
  8
maleContact
 62
256
370
-1
  6
ByLayer
100
AcDbCircle
 10
105.0000000000000142
 20
4.9999999999999734
 30
0.0
 40
65.1920240520264969
100
AcDbArc
 50
122.4711922908484922
 51
184.3987053549954851
  0
ARC
  5
7A
100
AcDbEntity
  8
maleContact
 62
256
370
-1
  6
ByLayer
100
AcDbCircle
 10
105.0
 20
-4.9999999999999307
 30
0.0
 40
65.1920240520264969
100
AcDbArc
 50
175.6012946450045149
 51
237.5288077091514651
  0
LINE
  5
7B
100
AcDbEntity
100
AcDbLine
  8
ParameterLines
 62
256
370
-1
  6
ByLayer
 10
100.0000000000002984
 20
62.6000000000001862
 30
0.0
 11
163.8000000000004945
 21
62.6000000000001862
 31
0.0
  0
ARC
  5
7C
100
AcDbEntity
  8
ParameterLines
 62
256
370
-1
  6
ByLayer
100
AcDbCircle
 10
100.600000000000307
 20
62.6000000000001862
 30
0.0
 40
48.2000000000001307
100
AcDbArc
 50
0.0
 51
17.3392614880404849
  0
LINE
  5
7D
100
AcDbEntity
100
AcDbLine
  8
ParameterLines
 62
256
370
-1
  6
ByLayer
 10
-60.0
 20
60.0
 30
0.0
 11
-70.0
 21
60.0
 31
0.0
  0
LINE
  5
7E
100
AcDbEntity
100
AcDbLine
  8
ParameterLines
 62
256
370
-1
  6
ByLayer
 10
-66.8945312500002132
 20
44.4335937500001421
 30
0.0
 11
-66.8945312500002132
 21
44.4335937500001421
 31
0.0
  0
LINE
  5
7F
100
AcDbEntity
100
AcDbLine
  8
ParameterLines
 62
256
370
-1
  6
ByLayer
 10
-66.8945312500002132
 20
22.4609375000000711
 30
0.0
 11
-66.8945312500002132
 21
60.0000000000002203
 31
0.0
  0
LINE
  5
80
100
AcDbEntity
100
AcDbLine
  8
ParameterLines
 62
256
370
-1
  6
ByLayer
 10
-60.0
 20
-60.0
 30
0.0
 11
-70.0
 21
-60.0
 31
0.0
  0
LINE
  5
81
100
AcDbEntity
100
AcDbLine
  8
ParameterLines
 62
256
370
-1
  6
ByLayer
 10
-66.8945312500002132
 20
-22.4609375000000711
 30
0.0
 11
-66.8945312500002132
 21
-60.0000000000002203
 31
0.0
  0
LINE
  5
82
100
AcDbEntity
100
AcDbLine
  8
ParameterLines
 62
256
370
-1
  6
ByLayer
 10
25.0000000000001492
 20
22.1875000000001315
 30
0.0
 11
25.0000000000001492
 21
62.5000000000003695
 31
0.0
  0
LINE
  5
83
100
AcDbEntity
100
AcDbLine
  8
ParameterLines
 62
256
370
-1
  6
ByLayer
 10
25.0000000000001457
 20
-22.1875000000001315
 30
0.0
 11
25.0000000000001386
 21
-62.5000000000003695
 31
0.0
  0
LINE
  5
84
100
AcDbEntity
100
AcDbLine
  8
ParameterLines
 62
256
370
-1
  6
ByLayer
 10
0.0
 20
120.0
 30
0.0
 11
0.0
 21
130.0
 31
0.0
  0
LINE
  5
85
100
AcDbEntity
100
AcDbLine
  8
ParameterLines
 62
256
370
-1
  6
ByLayer
 10
0.0
 20
130.0
 30
0.0
 11
200.0
 21
130.0
 31
0.0
  0
LINE
  5
86
100
AcDbEntity
100
AcDbLine
  8
ParameterLines
 62
256
370
-1
  6
ByLayer
 10
200.0
 20
130.0
 30
0.0
 11
200.0
 21
120.0
 31
0.0
  0
LINE
  5
87
100
AcDbEntity
100
AcDbLine
  8
ParameterLines
 62
256
370
-1
  6
ByLayer
 10
100.0
 20
130.0
 30
0.0
 11
100.0
 21
140.0
 31
0.0
  0
LINE
  5
88
100
AcDbEntity
100
AcDbLine
  8
ParameterLines
 62
256
370
-1
  6
ByLayer
 10
0.0
 20
-130.0
 30
0.0
 11
240.0
 21
-130.0
 31
0.0
  0
LINE
  5
89
100
AcDbEntity
100
AcDbLine
  8
ParameterLines
 62
256
370
-1
  6
ByLayer
 10
239.8681640625014495
 20
-130.0
 30
0.0
 11
234.9853515625014211
 21
-125.1220703125007532
 31
0.0
  0
LINE
  5
8A
100
AcDbEntity
100
AcDbLine
  8
ParameterLines
 62
256
370
-1
  6
ByLayer
 10
239.8681640625014495
 20
-130.0097656250015916
 30
0.0
 11
234.9853515625014211
 21
-134.8876953125008527
 31
0.0
  0
MTEXT
  5
8B
100
AcDbEntity
100
AcDbMText
  8
parameters
 62
256
370
-1
  6
ByLayer
 10
161.5000000000012506
 20
72.2500000000005542
 30
0.0
 40
15.0
 41
100.0
 71
5
 72
2
  1
\U+03b8
  7
italicc
 50
0.0
 73
0
 44
1.0
  0
MTEXT
  5
8C
100
AcDbEntity
100
AcDbMText
  8
parameters
 62
256
370
-1
  6
ByLayer
 10
174.7131347656265064
 20
73.2421875000006253
 30
0.0
 40
15.0
 41
100.0
 71
5
 72
2
  1
\U+03b8
  7
italicc
 50
0.0
 73
0
 44
1.0
  0
MTEXT
  5
8D
100
AcDbEntity
100
AcDbMText
  8
parameters
 62
256
370
-1
  6
ByLayer
 10
191.4978027343766485
 20
74.0051269531256395
 30
0.0
 40
15.0
 41
100.0
 71
5
 72
2
  1
\U+03b8
  7
italicc
 50
0.0
 73
0
 44
1.0
  0
MTEXT
  5
8E
100
AcDbEntity
100
AcDbMText
  8
parameters
 62
256
370
-1
  6
ByLayer
 10
191.4978027343766485
 20
74.0051269531256395
 30
0.0
 40
15.0
 41
100.0
 71
5
 72
2
  1
\U+03b8
  7
italicc
 50
0.0
 73
0
 44
1.0
  0
MTEXT
  5
8F
100
AcDbEntity
100
AcDbMText
  8
parameters
 62
256
370
-1
  6
ByLayer
 10
168.1408000000016045
 20
72.7040000000006899
 30
0.0
 40
15.0
 41
100.0
 71
5
 72
2
  1
\U+03b8
  7
italicc
 50
0.0
 73
0
 44
1.0
  0
MTEXT
  5
90
100
AcDbEntity
100
AcDbMText
  8
parameters
 62
256
370
-1
  6
ByLayer
 10
162.4064000000015255
 20
72.6016000000006869
 30
0.0
 40
15.0
 41
100.0
 71
5
 72
2
  1
\U+03b8
  7
italicc
 50
0.0
 73
0
 44
1.0
  0
MTEXT
  5
91
100
AcDbEntity
100
AcDbMText
  8
parameters
 62
256
370
-1
  6
ByLayer
 10
161.3824000000015246
 20
69.1200000000006582
 30
0.0
 40
15.0
 41
100.0
 71
5
 72
2
  1
\U+03b8
  7
italicc
 50
0.0
 73
0
 44
1.0
  0
MTEXT
  5
92
100
AcDbEntity
100
AcDbMText
  8
parameters
 62
256
370
-1
  6
ByLayer
 10
172.2368000000016366
 20
72.2944000000006781
 30
0.0
 40
15.0
 41
100.0
 71
5
 72
2
  1
\U+03b8
  7
italicc
 50
0.0
 73
0
 44
1.0
  0
MTEXT
  5
93
100
AcDbEntity
100
AcDbMText
  8
parameters
 62
256
370
-1
  6
ByLayer
 10
174.3872000000016556
 20
70.6560000000006738
 30
0.0
 40
15.0
 41
100.0
 71
5
 72
2
  1
\U+03b8
  7
italicc
 50
0.0
 73
0
 44
1.0
  0
MTEXT
  5
94
100
AcDbEntity
100
AcDbMText
  8
parameters
 62
256
370
-1
  6
ByLayer
 10
163.3280000000015377
 20
66.5600000000006276
 30
0.0
 40
15.0
 41
100.0
 71
5
 72
2
  1
\U+03b8
  7
italicc
 50
0.0
 73
0
 44
1.0
  0
MTEXT
  5
95
100
AcDbEntity
100
AcDbMText
  8
parameters
 62
256
370
-1
  6
ByLayer
 10
154.3168000000014501
 20
74.1376000000007025
 30
0.0
 40
15.0
 41
100.0
 71
5
 72
2
  1
\U+03b8
  7
italicc
 50
0.0
 73
0
 44
1.0
  0
MTEXT
  5
96
100
AcDbEntity
100
AcDbMText
  8
parameters
 62
256
370
-1
  6
ByLayer
 10
157.5936000000014872
 20
68.9152000000006524
 30
0.0
 40
15.0
 41
100.0
 71
5
 72
2
  1
\U+03b8
  7
italicc
 50
0.0
 73
0
 44
1.0
  0
MTEXT
  5
97
100
AcDbEntity
100
AcDbMText
  8
parameters
 62
256
370
-1
  6
ByLayer
 10
160.768000000001507
 20
72.8064000000006928
 30
0.0
 40
15.0
 41
100.0
 71
5
 72
2
  1
\U+03b8
  7
italicc
 50
0.0
 73
0
 44
1.0
  0
MTEXT
  5
98
100
AcDbEntity
100
AcDbMText
  8
parameters
 62
256
370
-1
  6
ByLayer
 10
152.6784000000014316
 20
72.3968000000006811
 30
0.0
 40
15.0
 41
100.0
 71
5
 72
2
  1
\U+03b8
  7
italicc
 50
0.0
 73
0
 44
1.0
  0
MTEXT
  5
99
100
AcDbEntity
100
AcDbMText
  8
parameters
 62
256
370
-1
  6
ByLayer
 10
157.6960000000015043
 20
70.5536000000006709
 30
0.0
 40
15.0
 41
100.0
 71
5
 72
2
  1
\U+03b8
  7
italicc
 50
0.0
 73
0
 44
1.0
  0
MTEXT
  5
9A
100
AcDbEntity
100
AcDbMText
  8
parameters
 62
256
370
-1
  6
ByLayer
 10
157.6960000000015043
 20
70.5536000000006709
 30
0.0
 40
15.0
 41
100.0
 71
5
 72
2
  1
\U+03b8
  7
italicc
 50
0.0
 73
0
 44
1.0
  0
MTEXT
  5
9B
100
AcDbEntity
100
AcDbMText
  8
parameters
 62
256
370
-1
  6
ByLayer
 10
186.1572265625011369
 20
71.4752000000006831
 30
0.0
 40
15.0
 41
100.0
 71
5
 72
2
  1
\U+03b8
  7
italicc
 50
0.0
 73
0
 44
1.0
  0
MTEXT
  5
9C
100
AcDbEntity
100
AcDbMText
  8
parameters
 62
256
370
-1
  6
ByLayer
 10
98.8498402555914026
 20
149.2252396166139476
 30
0.0
 40
15.0
 41
100.0
 71
5
 72
2
  1
20 mm
  7
iso8859-11
 50
0.0
 73
1
 44
1.0
  0
MTEXT
  5
9D
100
AcDbEntity
100
AcDbMText
  8
parameters
 62
256
370
-1
  6
ByLayer
 10
169.1853035143776083
 20
75.0878594249203957
 30
0.0
 40
15.0
 41
100.0
 71
5
 72
2
  1

  7
italicc
 50
0.0
 73
1
 44
1.0
  0
MTEXT
  5
9E
100
AcDbEntity
100
AcDbMText
  8
parameters
 62
256
370
-1
  6
ByLayer
 10
180.5910543130996757
 20
74.137380191693552
 30
0.0
 40
15.0
 41
100.0
 71
5
 72
2
  1

  7
italicc
 50
0.0
 73
1
 44
1.0
  0
LINE
  5
9F
100
AcDbEntity
100
AcDbLine
  8
maleContact
 62
256
370
-1
  6
ByLayer
 10
70.0
 20
60.0
 30
0.0
 11
248.0750798722053503
 21
60.0
 31
0.0
  0
LINE
  5
A0
100
AcDbEntity
100
AcDbLine
  8
maleContact
 62
256
370
-1
  6
ByLayer
 10
70.0
 20
-59.9999999999999574
 30
0.0
 11
249.025559105432194
 21
-60.0000000000000142
 31
0.0
  0
LINE
  5
A1
100
AcDbEntity
100
AcDbLine
  8
basex-Line
 62
256
370
-1
  6
ByLayer
 10
-170.135782747604452
 20
0.0
 30
0.0
 11
270.8865814696495136
 21
0.0
 31
0.0
  0
LINE
  5
A2
100
AcDbEntity
100
AcDbLine
  8
nozzleFunnel
 62
256
370
-1
  6
ByLayer
 10
99.8244352000004795
 20
110.3490561635788083
 30
0.0
 11
199.9677983079881756
 21
110.3490561635788083
 31
0.0
  0
LINE
  5
A3
100
AcDbEntity
100
AcDbLine
  8
nozzleFunnel
 62
256
370
-1
  6
ByLayer
 10
199.9677983079881756
 20
110.3490561635788083
 30
0.0
 11
200.127262261981798
 21
110.3490561635788083
 31
0.0
  0
LINE
  5
A4
100
AcDbEntity
100
AcDbLine
  8
nozzleFunnel
 62
256
370
-1
  6
ByLayer
 10
200.127262261981798
 20
110.3490561635788083
 30
0.0
 11
200.127262261981798
 21
93.7648049482432668
 31
0.0
  0
LINE
  5
A5
100
AcDbEntity
100
AcDbLine
  8
nozzleFunnel
 62
256
370
-1
  6
ByLayer
 10
99.8244352000004369
 20
-110.3490561635787657
 30
0.0
 11
199.9677983079881756
 21
-110.3490561635788083
 31
0.0
  0
LINE
  5
A6
100
AcDbEntity
100
AcDbLine
  8
nozzleFunnel
 62
256
370
-1
  6
ByLayer
 10
200.1272622619817128
 20
-110.3490561635788083
 30
0.0
 11
200.127262261981798
 21
-93.7648049482432668
 31
0.0
  0
LINE
  5
A7
100
AcDbEntity
100
AcDbLine
  8
ParameterLines
 62
256
370
-1
  6
ByLayer
 10
0.0
 20
-120.0763573571893232
 30
0.0
 11
0.0
 21
-140.0093516063907373
 31
0.0
  0
ELLIPSE
  5
A8
100
AcDbEntity
100
AcDbEllipse
  8
Def_areas
 62
256
370
-1
  6
ByLayer
 10
-40.0
 20
0.0
 30
0.0
 11
0.0
 21
0.0
 31
0.0
 40
-nan
 41
0.0
 42
6.2831853071795862
  0
ELLIPSE
  5
A9
100
AcDbEntity
100
AcDbEllipse
  8
Def_areas
 62
256
370
-1
  6
ByLayer
 10
-40.0
 20
0.0
 30
0.0
 11
0.0
 21
60.0
 31
0.0
 40
0.1666666666666667
 41
0.0
 42
6.2831853071795862
  0
ELLIPSE
  5
AA
100
AcDbEntity
100
AcDbEllipse
  8
Def_areas
 62
256
370
-1
  6
ByLayer
 10
60.0
 20
0.0
 30
0.0
 11
0.0
 21
62.3175149505020229
 31
0.0
 40
0.1570235324152497
 41
0.0
 42
6.2831853071795862
  0
ELLIPSE
  5
AB
100
AcDbEntity
100
AcDbEllipse
  8
Def_areas
 62
256
370
-1
  6
ByLayer
 10
200.0
 20
0.0
 30
0.0
 11
0.0
 21
0.0
 31
0.0
 40
inf
 41
0.0
 42
6.2831853071795862
  0
ELLIPSE
  5
AC
100
AcDbEntity
100
AcDbEllipse
  8
Def_areas
 62
256
370
-1
  6
ByLayer
 10
200.0
 20
0.0
 30
0.0
 11
0.0
 21
93.9397911319964862
 31
0.0
 40
0.1064511628086209
 41
0.0
 42
6.2831853071795862
  0
ENDSEC
  0
SECTION
  2
OBJECTS
  0
DICTIONARY
  5
C
100
AcDbDictionary
280
0
281
1
  3
ACAD_GROUP
350
D
  3
ACAD_LAYOUT
350
1A
  3
ACAD_MLINESTYLE
350
17
  3
ACAD_PLOTSETTINGS
350
19
  3
ACAD_PLOTSTYLENAME
350
E
  3
AcDbVariableDictionary
350
AD
  0
DICTIONARY
  5
D
100
AcDbDictionary
280
0
281
1
  0
ACDBDICTIONARYWDFLT
  5
E
100
AcDbDictionary
281
1
  3
Normal
350
F
100
AcDbDictionaryWithDefault
340
F
  0
ACDBPLACEHOLDER
  5
F
  0
DICTIONARY
  5
17
100
AcDbDictionary
280
0
281
1
  3
Standard
350
18
  0
MLINESTYLE
  5
18
100
AcDbMlineStyle
  2
STANDARD
 70
0
  3

 62
256
 51
90.0
 52
90.0
 71
2
 49
0.5
 62
256
  6
BYLAYER
 49
-0.5
 62
256
  6
BYLAYER
  0
DICTIONARY
  5
19
100
AcDbDictionary
280
0
281
1
  0
DICTIONARY
  5
1A
100
AcDbDictionary
281
1
  3
Layout1
350
1E
  3
Layout2
350
26
  3
Model
350
22
  0
LAYOUT
  5
1E
100
AcDbPlotSettings
  1

  2
C:\Program Files\AutoCAD 2002\plotters\DWF ePlot (optimized for plotting).pc3
  4

  6

 40
0.0
 41
0.0
 42
0.0
 43
0.0
 44
0.0
 45
0.0
 46
0.0
 47
0.0
 48
0.0
 49
0.0
140
0.0
141
0.0
142
1.0
143
1.0
 70
688
 72
0
 73
0
 74
5
  7

 75
16
147
1.0
148
0.0
149
0.0
100
AcDbLayout
  1
Layout1
 70
1
 71
1
 10
0.0
 20
0.0
 11
420.0
 21
297.0
 12
0.0
 22
0.0
 32
0.0
 14
100000000000000000000.0
 24
100000000000000000000.0
 34
100000000000000000000.0
 15
-100000000000000000000.0
 25
-100000000000000000000.0
 35
-100000000000000000000.0
146
0.0
 13
0.0
 23
0.0
 33
0.0
 16
1.0
 26
0.0
 36
0.0
 17
0.0
 27
1.0
 37
0.0
 76
0
330
1B
  0
LAYOUT
  5
22
100
AcDbPlotSettings
  1

  2
C:\Program Files\AutoCAD 2002\plotters\DWF ePlot (optimized for plotting).pc3
  4

  6

 40
0.0
 41
0.0
 42
0.0
 43
0.0
 44
0.0
 45
0.0
 46
0.0
 47
0.0
 48
0.0
 49
0.0
140
0.0
141
0.0
142
1.0
143
1.0
 70
1712
 72
0
 73
0
 74
0
  7

 75
0
147
1.0
148
0.0
149
0.0
100
AcDbLayout
  1
Model
 70
1
 71
0
 10
0.0
 20
0.0
 11
12.0
 21
9.0
 12
0.0
 22
0.0
 32
0.0
 14
0.0
 24
0.0
 34
0.0
 15
0.0
 25
0.0
 35
0.0
146
0.0
 13
0.0
 23
0.0
 33
0.0
 16
1.0
 26
0.0
 36
0.0
 17
0.0
 27
1.0
 37
0.0
 76
0
330
1F
  0
LAYOUT
  5
26
100
AcDbPlotSettings
  1

  2
C:\Program Files\AutoCAD 2002\plotters\DWF ePlot (optimized for plotting).pc3
  4

  6

 40
0.0
 41
0.0
 42
0.0
 43
0.0
 44
0.0
 45
0.0
 46
0.0
 47
0.0
 48
0.0
 49
0.0
140
0.0
141
0.0
142
1.0
143
1.0
 70
688
 72
0
 73
0
 74
5
  7

 75
16
147
1.0
148
0.0
149
0.0
100
AcDbLayout
  1
Layout2
 70
1
 71
2
 10
0.0
 20
0.0
 11
12.0
 21
9.0
 12
0.0
 22
0.0
 32
0.0
 14
0.0
 24
0.0
 34
0.0
 15
0.0
 25
0.0
 35
0.0
146
0.0
 13
0.0
 23
0.0
 33
0.0
 16
1.0
 26
0.0
 36
0.0
 17
0.0
 27
1.0
 37
0.0
 76
0
330
23
  0
DICTIONARY
  5
AD
100
AcDbDictionary
281
1
  3
DIMASSOC
350
AF
  3
HIDETEXT
350
AE
  0
DICTIONARYVAR
  5
AE
100
DictionaryVariables
280
0
  1
2
  0
DICTIONARYVAR
  5
AF
100
DictionaryVariables
280
0
  1
1
  0
ENDSEC
  0
EOF
